HIERARCHY
ROOT Hips
{
	OFFSET 0.000000 0.000000 0.000000
	CHANNELS 6 Xposition Yposition Zposition Xrotation Yrotation Zrotation
	JOINT LeftUpLeg_virtual
	{
		OFFSET 0.000000 0.000000 0.000000
		CHANNELS 3 Xrotation Yrotation Zrotation
		JOINT LeftUpLeg
		{
			OFFSET 13.026900 -6.336304 -1.092800
			CHANNELS 3 Xrotation Yrotation Zrotation
			JOINT LeftLeg
			{
				OFFSET 0.524474 -46.096886 9.782700
				CHANNELS 3 Xrotation Yrotation Zrotation
				JOINT LeftFoot
				{
					OFFSET -0.524474 -53.427422 -12.948200
					CHANNELS 3 Xrotation Yrotation Zrotation
					JOINT LeftToeBase
					{
						OFFSET 0.192200 -14.009700 16.364100
						CHANNELS 3 Xrotation Yrotation Zrotation
						JOINT LeftToe_End
						{
							OFFSET -1.784700 -0.561700 9.474800
							CHANNELS 3 Xrotation Yrotation Zrotation
							End Site
							{
								OFFSET 0 0 0
							}
						}
					}
				}
			}
		}
	}
	JOINT RightUpLeg_virtual
	{
		OFFSET 0.000000 0.000000 0.000000
		CHANNELS 3 Xrotation Yrotation Zrotation
		JOINT RightUpLeg
		{
			OFFSET -12.883000 -6.336304 -1.092800
			CHANNELS 3 Xrotation Yrotation Zrotation
			JOINT RightLeg
			{
				OFFSET -0.524587 -46.096825 9.782800
				CHANNELS 3 Xrotation Yrotation Zrotation
				JOINT RightFoot
				{
					OFFSET 0.524587 -53.427383 -12.948300
					CHANNELS 3 Xrotation Yrotation Zrotation
					JOINT RightToeBase
					{
						OFFSET -0.192200 -14.009700 16.364100
						CHANNELS 3 Xrotation Yrotation Zrotation
						JOINT RightToe_End
						{
							OFFSET 1.784700 -0.561700 9.474800
							CHANNELS 3 Xrotation Yrotation Zrotation
							End Site
							{
								OFFSET 0 0 0
							}
						}
					}
				}
			}
		}
	}
	JOINT Spine_virtual
	{
		OFFSET 0.000000 0.000000 0.000000
		CHANNELS 3 Xrotation Yrotation Zrotation
		JOINT Spine
		{
			OFFSET 0.072000 7.257294 -0.789700
			CHANNELS 3 Xrotation Yrotation Zrotation
			JOINT Spine1
			{
				OFFSET 0.000000 12.508769 -0.658067
				CHANNELS 3 Xrotation Yrotation Zrotation
				JOINT Spine1_split
				{
					OFFSET 0.000000 12.508769 -0.658067
					CHANNELS 3 Xrotation Yrotation Zrotation
					JOINT Spine2
					{
						OFFSET 0.000000 12.508769 -0.658067
						CHANNELS 3 Xrotation Yrotation Zrotation
						JOINT Neck_virtual
						{
							OFFSET 0.000000 0.000000 0.000000
							CHANNELS 3 Xrotation Yrotation Zrotation
							JOINT Neck
							{
								OFFSET 0.000000 14.033295 7.520400
								CHANNELS 3 Xrotation Yrotation Zrotation
								JOINT Head
								{
									OFFSET 0.000000 8.198502 5.703100
									CHANNELS 3 Xrotation Yrotation Zrotation
									JOINT HeadTop_End
									{
										OFFSET 0.000000 17.760803 13.332701
										CHANNELS 3 Xrotation Yrotation Zrotation
										End Site
										{
											OFFSET 0 0 0
										}
									}
								}
							}
						}
						JOINT LeftShoulder_virtual
						{
							OFFSET 0.000000 0.000000 0.000000
							CHANNELS 3 Xrotation Yrotation Zrotation
							JOINT LeftShoulder
							{
								OFFSET 6.292450 5.785301 -0.669000
								CHANNELS 3 Xrotation Yrotation Zrotation
								JOINT LeftShoulder_split
								{
									OFFSET 6.292450 5.785301 -0.669000
									CHANNELS 3 Xrotation Yrotation Zrotation
									JOINT LeftArm
									{
										OFFSET 13.907140 -6.093903 1.965100
										CHANNELS 3 Xrotation Yrotation Zrotation
										JOINT LeftForeArm
										{
											OFFSET 34.140198 0.000000 0.000000
											CHANNELS 3 Xrotation Yrotation Zrotation
											JOINT LeftHand
											{
												OFFSET 40.960209 0.000000 0.000000
												CHANNELS 3 Xrotation Yrotation Zrotation
												End Site
												{
													OFFSET 0 0 0
												}
											}
										}
									}
								}
							}
						}
						JOINT RightShoulder_virtual
						{
							OFFSET 0.000000 0.000000 0.000000
							CHANNELS 3 Xrotation Yrotation Zrotation
							JOINT RightShoulder
							{
								OFFSET -6.292450 5.785301 -0.669000
								CHANNELS 3 Xrotation Yrotation Zrotation
								JOINT RightShoulder_split
								{
									OFFSET -6.292450 5.785301 -0.669000
									CHANNELS 3 Xrotation Yrotation Zrotation
									JOINT RightArm
									{
										OFFSET -13.907140 -6.093903 1.965100
										CHANNELS 3 Xrotation Yrotation Zrotation
										JOINT RightForeArm
										{
											OFFSET -34.140198 0.000000 0.000000
											CHANNELS 3 Xrotation Yrotation Zrotation
											JOINT RightHand
											{
												OFFSET -40.960209 0.000000 0.000000
												CHANNELS 3 Xrotation Yrotation Zrotation
												End Site
												{
													OFFSET 0 0 0
												}
											}
										}
									}
								}
							}
						}
					}
				}
			}
		}
	}
}
MOTION
Frames: 4
Frame Time: 0.03333333
3.855651 101.019768 -9.056011 0.000000 0.000000 0.000000 -0.465161 -5.355769 -1.798448 -35.135415 18.935875 17.305807 49.462639 3.645178 4.980457 -10.658673 1.347356 -15.653390 -4.215209 -1.023624 -1.035396 0.000000 0.000000 0.000000 -0.062729 -2.968201 -1.869391 -28.021346 -19.700274 -11.811470 46.688007 5.157411 -3.765999 -14.428474 -6.720226 17.857605 3.490835 2.345047 -14.286315 0.000000 0.000000 0.000000 -1.653266 -0.294985 -2.545004 5.580758 -7.055980 1.097292 -0.154146 1.098882 -0.746276 0.282940 -0.454523 -0.009476 0.000000 0.000000 0.000000 0.259193 4.028277 0.094640 -1.249339 6.940081 15.399256 -40.717561 -48.817473 -40.476346 0.000000 0.000000 0.000000 0.340732 1.787612 -0.837250 1.736708 -4.884020 18.691356 2.881746 3.274357 -2.817105 -36.398379 -51.360140 -39.273038 13.218759 -58.731827 14.819718 0.000000 0.000000 0.000000 1.336843 2.464403 0.386419 0.440570 4.941936 3.713126 4.761318 3.724681 -1.078118 -4.232351 80.257550 -6.478222 -33.109035 36.165312 24.228083 0.000000 0.000000 0.000000 
4.054942 100.967514 -9.168072 0.000000 0.000000 0.000000 -0.218815 -5.279546 -1.765409 -34.702818 18.524839 16.980209 49.453493 3.643876 5.018746 -11.388381 1.468828 -15.394268 -3.773835 -1.065393 -0.950864 0.000000 0.000000 0.000000 -0.025890 -3.180264 -1.767168 -28.173666 -19.525416 -11.890286 47.146627 5.292078 -3.810452 -14.604826 -6.850058 18.062867 3.766652 2.257568 -14.319165 0.000000 0.000000 0.000000 -1.328439 -0.383954 -2.644446 5.110832 -6.936263 1.181329 -0.266917 1.123000 -0.731197 0.196123 -0.443439 -0.001566 0.000000 0.000000 0.000000 0.349748 4.100131 0.079606 -1.500006 7.110067 15.204940 -39.515226 -48.969127 -39.551443 0.000000 0.000000 0.000000 0.498404 1.787844 -0.843561 1.558563 -4.446790 18.501430 2.407905 2.102443 -2.207080 -34.955470 -51.862634 -39.374015 14.209669 -57.308887 15.628946 0.000000 0.000000 0.000000 1.405719 2.506850 0.328339 0.411509 4.724709 3.779004 4.471380 4.413852 -0.299775 -15.715328 78.959548 4.380746 -33.617894 36.457733 24.594775 0.000000 0.000000 0.000000 
4.499628 100.696701 -9.291218 0.000000 0.000000 0.000000 -0.065336 -5.604154 -1.595805 -34.112922 18.251314 16.348667 49.437797 3.923811 5.042972 -12.404479 1.982566 -15.123757 -2.986852 -1.109141 -0.874159 0.000000 0.000000 0.000000 0.051872 -3.849092 -1.548621 -28.805575 -19.097214 -12.105334 47.850765 5.428119 -3.909580 -14.916088 -7.114534 18.372220 4.324115 2.068628 -14.373836 0.000000 0.000000 0.000000 -1.041085 -1.308052 -2.491817 4.426358 -6.571656 1.288922 -0.188996 1.202511 -0.646698 0.096020 -0.441574 -0.004595 0.000000 0.000000 0.000000 0.513571 4.227487 0.144191 -1.806320 7.535436 14.542195 -36.770026 -47.934274 -37.671287 0.000000 0.000000 0.000000 0.776618 1.843754 -0.852251 1.351862 -3.823069 17.914125 2.335320 1.090391 -1.354695 -33.514792 -52.711541 -39.769709 12.969687 -56.398942 14.897828 0.000000 0.000000 0.000000 1.596929 2.616695 0.380601 0.177680 4.282877 4.118965 4.604237 4.721111 0.487811 -28.798048 77.734697 16.430198 -33.990518 36.451849 24.951760 0.000000 0.000000 0.000000 
5.113553 100.293564 -9.387363 0.000000 0.000000 0.000000 0.056303 -6.232766 -1.268834 -33.533579 18.099913 15.463381 49.450358 4.389069 5.054673 -13.230127 2.568455 -14.934157 -2.534406 -1.165590 -0.756308 0.000000 0.000000 0.000000 0.275199 -4.820073 -1.197585 -29.928509 -18.470373 -12.487387 48.744157 5.602848 -4.053284 -15.194097 -7.354118 18.914624 4.968050 1.833746 -14.462360 0.000000 0.000000 0.000000 -0.882140 -2.742660 -2.072574 3.696686 -6.063538 1.467863 0.117478 1.278771 -0.476045 0.063416 -0.516871 -0.005649 0.000000 0.000000 0.000000 0.726532 4.338941 0.335182 -2.131284 8.134083 13.534302 -32.837039 -45.677180 -35.075538 0.000000 0.000000 0.000000 1.126706 1.909869 -0.806359 1.173372 -3.146232 17.125572 2.587220 0.568936 -0.598617 -32.529076 -53.577425 -40.409148 10.170243 -56.220554 13.119278 0.000000 0.000000 0.000000 1.957713 2.759297 0.548663 -0.263236 3.711216 4.690614 5.103466 4.769604 0.917845 -41.007851 76.950994 27.418478 -33.901285 35.959225 24.927617 0.000000 0.000000 0.000000 
